<svg width="24" height="24" viewBox="0 0 24 24" fill="none" xmlns="http://www.w3.org/2000/svg">
<path fill-rule="evenodd" clip-rule="evenodd" d="M0.75 4.5C0.75 3.67157 1.42157 3 2.25 3H21.75C22.5784 3 23.25 3.67157 23.25 4.5V15C23.25 15.8284 22.5784 16.5 21.75 16.5H2.25C1.42157 16.5 0.75 15.8284 0.75 15V4.5ZM2.25 8.18706V11.3129C2.58272 11.3692 2.90885 11.4628 3.22208 11.5925C3.76804 11.8187 4.26412 12.1502 4.68198 12.568C5.09984 12.9859 5.43131 13.482 5.65746 14.0279C5.7872 14.3412 5.88082 14.6673 5.93706 15H18.0629C18.2176 14.0848 18.653 13.233 19.318 12.568C19.983 11.903 20.8348 11.4676 21.75 11.3129V8.18708C20.8348 8.03238 19.983 7.597 19.318 6.93198C18.653 6.26696 18.2176 5.41523 18.0629 4.5H5.93706C5.88082 4.83272 5.7872 5.15885 5.65746 5.47208C5.43131 6.01804 5.09984 6.51412 4.68198 6.93198C4.26412 7.34984 3.76804 7.68131 3.22208 7.90746C2.90885 8.0372 2.58272 8.13082 2.25 8.18706ZM4.40474 4.5C4.3698 4.63533 4.32536 4.76835 4.27164 4.89805C4.12087 5.26203 3.8999 5.59274 3.62132 5.87132C3.34274 6.1499 3.01203 6.37087 2.64805 6.52164C2.51835 6.57536 2.38533 6.6198 2.25 6.65474V4.5H4.40474ZM19.5953 4.5C19.7281 5.01452 19.9965 5.48916 20.3787 5.87132C20.7608 6.25348 21.2355 6.52188 21.75 6.65475V4.5H19.5953ZM21.75 12.8453C21.2355 12.9781 20.7608 13.2465 20.3787 13.6287C19.9965 14.0108 19.7281 14.4855 19.5953 15H21.75V12.8453ZM4.40474 15C4.3698 14.8647 4.32536 14.7317 4.27164 14.6019C4.12087 14.238 3.8999 13.9073 3.62132 13.6287C3.34274 13.3501 3.01203 13.1291 2.64805 12.9784C2.51835 12.9246 2.38533 12.8802 2.25 12.8453V15H4.40474ZM12 6.75C10.3431 6.75 9 8.09315 9 9.75C9 11.4069 10.3431 12.75 12 12.75C13.6569 12.75 15 11.4069 15 9.75C15 8.09315 13.6569 6.75 12 6.75ZM7.5 9.75C7.5 7.26472 9.51472 5.25 12 5.25C14.4853 5.25 16.5 7.26472 16.5 9.75C16.5 12.2353 14.4853 14.25 12 14.25C9.51472 14.25 7.5 12.2353 7.5 9.75ZM2.25 18C2.25 17.5858 2.58579 17.25 3 17.25H21C21.4142 17.25 21.75 17.5858 21.75 18C21.75 18.4142 21.4142 18.75 21 18.75H3C2.58579 18.75 2.25 18.4142 2.25 18ZM3.75 20.25C3.75 19.8358 4.08579 19.5 4.5 19.5H19.5C19.9142 19.5 20.25 19.8358 20.25 20.25C20.25 20.6642 19.9142 21 19.5 21H4.5C4.08579 21 3.75 20.6642 3.75 20.25Z" fill="#989898"/>
</svg>
