<svg width="24" height="24" viewBox="0 0 24 24" fill="none" xmlns="http://www.w3.org/2000/svg">
<path d="M15.75 12C14.7844 12 13.8563 11.5687 13.125 10.7906C12.4172 10.0312 11.9813 9.01406 11.9063 7.93125C11.8266 6.77812 12.1781 5.71406 12.8953 4.94063C13.6125 4.17188 14.625 3.75 15.75 3.75C16.8657 3.75 17.8782 4.17656 18.5953 4.94531C19.3219 5.72344 19.6735 6.78281 19.5891 7.92656C19.5094 9.00938 19.0782 10.0266 18.3703 10.7859C17.6438 11.5688 16.7157 12 15.75 12ZM15.75 5.25C15.0469 5.25 14.4235 5.50312 13.9969 5.9625C13.5563 6.43594 13.3547 7.07812 13.4063 7.82344C13.4578 8.56406 13.7485 9.25781 14.2266 9.76875C14.6672 10.2422 15.211 10.5 15.75 10.5C16.2938 10.5 16.8328 10.2375 17.2735 9.76875C17.7516 9.25781 18.0422 8.56875 18.0938 7.82344C18.1453 7.10156 17.9344 6.44063 17.4938 5.97188C17.0672 5.50313 16.4438 5.25 15.75 5.25Z" fill="#989898"/>
<path d="M21.9282 20.2501H9.57191C9.1641 20.2501 8.7891 20.0673 8.54066 19.7485C8.28285 19.4157 8.1891 18.9657 8.29222 18.5392C8.68598 16.9548 9.66566 15.6423 11.1188 14.7376C12.4079 13.936 14.0532 13.4954 15.7453 13.4954C17.4704 13.4954 19.0735 13.9173 20.3719 14.7188C21.8297 15.6142 22.8094 16.936 23.2032 18.5392C23.3063 18.9657 23.2125 19.4157 22.9547 19.7485C22.711 20.0673 22.336 20.2501 21.9282 20.2501ZM9.79222 18.7501H21.7125C20.9391 15.9845 18.0375 15.0001 15.75 15.0001C13.4719 15.0001 10.575 15.9845 9.79222 18.7501Z" fill="#989898"/>
<path d="M6.89065 12.1874C5.24065 12.1874 3.79221 10.6546 3.65627 8.77022C3.58596 7.80459 3.88596 6.91397 4.49534 6.25772C5.10002 5.61084 5.94846 5.25459 6.88596 5.25459C7.81877 5.25459 8.66721 5.61553 9.2719 6.26709C9.88596 6.92803 10.186 7.81866 10.1156 8.77491C9.98909 10.6546 8.53596 12.1874 6.89065 12.1874ZM6.89065 6.74991C6.37502 6.74991 5.91565 6.93741 5.5969 7.27959C5.26877 7.63116 5.11409 8.10928 5.15627 8.66241C5.23596 9.75928 6.02815 10.6874 6.89065 10.6874C7.75315 10.6874 8.55002 9.75928 8.62502 8.66241C8.66252 8.12334 8.50315 7.63584 8.17971 7.28428C7.86096 6.93741 7.40159 6.74991 6.89065 6.74991Z" fill="#989898"/>
<path d="M7.21879 18.7499H1.95472C1.58441 18.7499 1.24222 18.5812 1.01254 18.2952C0.778161 17.9952 0.693786 17.5827 0.787536 17.1983C1.11097 15.8905 1.91722 14.8124 3.11254 14.0718C4.16722 13.4202 5.50785 13.0593 6.88597 13.0593C8.06722 13.0593 9.07504 13.2562 9.96566 13.664C10.3407 13.8374 10.5094 14.2827 10.336 14.6577C10.1625 15.0327 9.71722 15.2015 9.34222 15.028C8.65316 14.714 7.8516 14.5593 6.89066 14.5593C5.17972 14.5593 3.01879 15.2718 2.33441 17.2546H7.21879C7.63129 17.2546 7.96879 17.5921 7.96879 18.0046C7.96879 18.4171 7.63129 18.7499 7.21879 18.7499Z" fill="#989898"/>
</svg>
