<svg width="22" height="22" viewBox="0 0 22 22" fill="none" xmlns="http://www.w3.org/2000/svg">
<path d="M21.0453 4.7516L21.0406 4.74222C20.9469 4.55003 20.7828 4.40941 20.5813 4.34378C20.3797 4.27816 20.1641 4.29222 19.9719 4.38597C19.8922 4.42347 19.8219 4.47503 19.7656 4.53597L16.9344 7.37191C16.6391 7.66254 16.1656 7.66254 15.875 7.37191L14.6328 6.12972C14.3422 5.83441 14.3422 5.36097 14.6328 5.06566L17.45 2.24847C17.6 2.10316 17.6797 1.90628 17.6844 1.69535C17.6891 1.48441 17.6094 1.27816 17.4594 1.12816C17.3844 1.05316 17.3 0.992222 17.2016 0.950034C15.0453 0.0312841 12.3735 0.551597 10.6953 2.21566C9.24689 3.65472 8.81564 5.90003 9.50939 8.37972C9.58439 8.6516 9.5047 8.93754 9.29845 9.12972L1.49377 16.2547C0.256266 17.3563 0.143766 19.2594 1.24533 20.4969C1.7797 21.0969 2.51564 21.4578 3.3172 21.5047C3.37814 21.5094 3.43908 21.5094 3.50002 21.5094C4.23595 21.5094 4.93439 21.2422 5.4922 20.75C5.58127 20.6703 5.66564 20.5907 5.74064 20.5016L12.9453 12.6782C13.1328 12.4766 13.4188 12.3922 13.6813 12.4625C16.1281 13.1188 18.3547 12.6875 19.7797 11.2813C20.6 10.4703 21.1766 9.32191 21.3969 8.04691C21.6125 6.84691 21.4813 5.64691 21.0453 4.7516ZM18.7297 10.2172C17.2531 11.6703 14.9844 11.2625 14.0703 11.0188C13.2641 10.8032 12.4156 11.0516 11.8438 11.6657L4.6297 19.4938L4.62033 19.5032C4.57814 19.55 4.53595 19.5922 4.49377 19.6297C4.19377 19.8969 3.8047 20.0329 3.40158 20.0047C2.99845 19.9813 2.63283 19.8032 2.36564 19.4985C1.81252 18.875 1.87345 17.9235 2.4922 17.3703L10.311 10.2313L10.3156 10.2266C10.9391 9.65003 11.1828 8.78754 10.9531 7.96722C10.6953 7.04847 10.2547 4.75628 11.75 3.27035C12.5797 2.44535 13.775 1.99535 14.9516 1.99535C15.1438 1.99535 15.3406 2.00941 15.5281 2.03285L13.5594 4.0016C12.6875 4.87816 12.6875 6.30316 13.5594 7.18441L14.8063 8.43128C15.6828 9.30316 17.1078 9.30316 17.9844 8.43128L19.9672 6.44847C20.1031 7.69066 19.7047 9.26097 18.7297 10.2172Z" fill="#989898"/>
<path d="M3.50002 19.25C3.91424 19.25 4.25002 18.9142 4.25002 18.5C4.25002 18.0858 3.91424 17.75 3.50002 17.75C3.08581 17.75 2.75002 18.0858 2.75002 18.5C2.75002 18.9142 3.08581 19.25 3.50002 19.25Z" fill="#989898"/>
</svg>
