<svg width="24" height="22" viewBox="0 0 24 22" fill="none" xmlns="http://www.w3.org/2000/svg">
<path fill-rule="evenodd" clip-rule="evenodd" d="M7.10512 0.612013C7.32623 0.475358 7.60234 0.462935 7.83483 0.57918L8.99942 1.16148L10.164 0.57918C10.3753 0.473519 10.6241 0.473612 10.8353 0.579433L11.9988 1.16228L13.1816 0.57765C13.3931 0.473126 13.6414 0.474179 13.852 0.580495L15 1.1601L16.1524 0.580068C16.3641 0.473521 16.6137 0.473301 16.8256 0.579475L17.9881 1.16202L19.1663 0.578019C19.377 0.473602 19.6244 0.474017 19.8347 0.579138L20.9998 1.16148L22.1639 0.579222C22.3964 0.46294 22.6725 0.475338 22.8937 0.611988C23.1148 0.748638 23.2494 0.990051 23.2494 1.25V17C23.2494 18.1935 22.7753 19.3381 21.9314 20.182C21.0875 21.0259 19.9429 21.5 18.7494 21.5H5.24942C4.31348 21.5 3.52523 21.3473 2.87771 21.0216C2.21823 20.6898 1.74884 20.2006 1.4273 19.6074C0.815663 18.4792 0.749501 16.9777 0.749419 15.5028C0.748184 15.3057 0.785949 15.1104 0.860551 14.928C0.935642 14.7444 1.04655 14.5776 1.18681 14.4374C1.32706 14.2971 1.49385 14.1862 1.67744 14.1111C1.85979 14.0365 2.0551 13.9988 2.25208 14H6.74942V1.25C6.74942 0.990068 6.88401 0.748668 7.10512 0.612013ZM8.24942 14H14.9994C15.4136 14 15.7494 14.3358 15.7494 14.75V17C15.7494 17.7957 16.0655 18.5587 16.6281 19.1213C17.1907 19.6839 17.9538 20 18.7494 20C19.5451 20 20.3081 19.6839 20.8707 19.1213C21.4333 18.5587 21.7494 17.7957 21.7494 17V2.4637L21.3354 2.67078C21.1242 2.77638 20.8757 2.77641 20.6646 2.67086L19.498 2.08777L18.3194 2.67198C18.1085 2.77652 17.8607 2.77598 17.6503 2.67053L16.4903 2.08926L15.3366 2.66993C15.1242 2.77684 14.8737 2.77668 14.6614 2.66951L13.5104 2.08838L12.3289 2.67235C12.1182 2.77651 11.8709 2.77585 11.6607 2.67057L10.4991 2.08868L9.33483 2.67082C9.12368 2.77639 8.87515 2.77639 8.66401 2.67082L8.24942 2.46353V14ZM15.3953 20C14.6593 19.1772 14.2494 18.1097 14.2494 17V15.5H2.24942C2.24942 17.0242 2.34153 18.1465 2.74599 18.8926C2.93269 19.2369 3.18617 19.4977 3.55176 19.6816C3.92931 19.8715 4.46833 20 5.24942 20H15.3953ZM9.74942 5.75C9.74942 5.33579 10.0852 5 10.4994 5H19.4994C19.9136 5 20.2494 5.33579 20.2494 5.75C20.2494 6.16421 19.9136 6.5 19.4994 6.5H10.4994C10.0852 6.5 9.74942 6.16421 9.74942 5.75ZM12.7494 9.5C12.7494 9.08579 13.0852 8.75 13.4994 8.75H19.4994C19.9136 8.75 20.2494 9.08579 20.2494 9.5C20.2494 9.91422 19.9136 10.25 19.4994 10.25H13.4994C13.0852 10.25 12.7494 9.91422 12.7494 9.5Z" fill="#989898"/>
</svg>
